<svg width="442" height="442" viewBox="0 0 442 442" fill="none" xmlns="http://www.w3.org/2000/svg">
<rect width="442" height="442" fill="#F5F5F5"/>
<path d="M179.061 331.566C174.025 325.739 169.566 319.658 165.09 313.584C159.966 306.629 155.846 299.056 151.404 291.683C148.032 286.088 144.951 280.332 142.242 274.372C140.519 270.583 138.423 266.965 136.9 263.077C136.717 262.61 136.476 262.159 136.344 261.679C135.458 258.464 135.217 258.233 131.689 258.851C128.742 259.367 125.921 258.987 123.246 257.85C116.97 255.182 113.443 250.168 111.714 243.75C111.302 242.222 111.224 240.644 111.233 239.049C111.29 228.691 111.045 218.323 111.417 207.977C111.66 201.219 111.599 194.471 111.674 187.719C111.693 185.989 112.179 184.362 113.003 182.995C115.358 179.083 117.307 174.867 121.09 171.955C124.459 169.362 128.355 168.227 132.425 167.83C136.378 167.444 136.597 167.333 135.996 163.489C135.572 160.778 135.708 158.028 136.386 155.355C137.973 149.095 139.4 142.803 141.974 136.817C145.414 128.815 150.001 121.589 155.679 115.017C156.885 113.622 157.973 112.125 158.802 110.262C157.39 110.965 155.941 111.604 154.571 112.381C145.954 117.267 138.315 123.43 131.11 130.195C123.177 137.643 116.189 145.88 109.953 154.779C107.359 158.481 107.277 158.611 103.091 156.767C99.3509 155.118 95.7314 153.182 92.63 150.417C90.9727 148.94 90.5787 147.456 91.4961 145.274C93.6578 140.133 97.1737 135.93 100.758 131.862C105.645 126.315 110.331 120.555 115.876 115.611C126.202 106.402 137.192 98.1885 149.583 91.8515C158.5 87.2913 167.52 83.0737 177.075 80.0558C178.509 79.6029 179.978 79.1974 181.462 78.979C185.965 78.3161 189.708 81.4392 189.916 86.0419C189.98 87.456 190.514 88.8197 190.114 90.3062C189.843 91.3136 190.698 91.5306 191.492 91.1961C195.052 89.6966 198.893 89.5419 202.622 88.9022C204.334 88.6084 204.94 87.9308 204.93 86.2461C204.876 76.607 204.839 66.9671 204.913 57.3284C204.931 54.9045 203.229 53.578 202.008 51.981C195.754 43.7954 194.54 36.5315 198.881 27.1097C202.849 18.4967 213.607 13.1399 222.64 14.3813C232.39 15.7211 240.897 22.7699 242.632 33.0654C244.011 41.2447 241.238 47.8467 236.008 53.7608C235.292 54.57 234.857 55.341 234.858 56.4213C234.87 66.492 234.871 76.5627 234.847 86.6334C234.844 87.9954 235.231 88.8362 236.771 88.8633C240.107 88.9219 243.295 89.7319 246.467 90.7338C249.493 91.6898 249.965 91.2586 249.852 88.2208C249.649 82.7304 253.084 78.8236 258.19 78.7925C260.179 78.7804 261.946 79.7189 263.744 80.3784C273.936 84.1164 284.011 88.1735 293.404 93.6591C305.235 100.568 316.137 108.745 325.836 118.469C331.107 123.753 336.532 128.902 341.128 134.805C343.856 138.309 346.455 141.923 348.603 145.832C349.607 147.66 349.2 149.162 347.572 150.355C344.263 152.779 340.782 154.945 337.192 156.917C334.223 158.547 331.972 158.243 329.713 155.077C325.467 149.127 320.961 143.347 315.976 137.941C311.737 133.344 307.274 128.996 302.574 124.916C298.352 121.251 293.946 117.776 289.127 114.855C286.795 113.442 284.5 111.98 282.052 110.772C281.42 110.46 280.845 109.987 279.957 110.201C279.959 111.191 280.749 111.667 281.305 112.239C290.269 121.471 296.448 132.334 300.684 144.446C302.512 149.673 303.252 155.026 303.81 160.443C303.976 162.058 303.64 163.727 303.504 165.369C303.367 167.025 304.192 167.758 305.764 167.803C308.017 167.867 310.147 168.559 312.311 169.073C314.698 169.639 316.684 170.905 318.245 172.773C320 174.873 321.858 176.831 323.951 178.624C326.965 181.206 327.624 184.915 327.65 188.63C327.687 193.875 326.77 199.208 327.432 204.352C328.845 215.322 327.999 226.283 328.027 237.233C328.043 243.188 326.211 249.08 321.878 253.54C318.487 257.031 314.042 259.076 309.135 258.875C305.1 258.709 303.276 259.817 301.825 263.911C299.319 270.981 295.915 277.766 292.098 284.289C287.86 291.53 283.873 298.925 279.421 306.03C276.537 310.633 273.421 315.121 269.931 319.332C266.779 323.134 263.997 327.249 260.768 330.981C254.24 338.524 247.293 345.664 239.333 351.746C235.414 354.74 231.557 357.817 227.603 360.765C225.882 362.048 223.985 363.093 222.176 364.258C220.579 365.287 219.113 365.404 217.415 364.235C211.149 359.922 205.041 355.426 199.151 350.594C193.369 345.85 187.702 341.016 182.601 335.541C181.427 334.281 180.316 332.961 179.061 331.566ZM215.44 83.9468C215.441 85.3131 215.251 86.7122 215.48 88.0392C216.097 91.6178 215.812 95.2108 215.893 98.7977C215.921 100.005 215.603 101 214.184 101.057C208.699 101.274 203.431 102.563 198.193 104.101C189.313 106.709 181.224 110.876 174.211 116.86C168.308 121.896 163.186 127.68 159.158 134.426C153.767 143.457 150.002 153.032 149.901 163.604C149.625 192.513 149.63 221.425 149.529 250.336C149.517 253.884 149.85 257.361 151.619 260.556C152.279 261.746 152.827 262.999 153.419 264.226C157.565 272.825 161.986 281.276 167.083 289.357C169.916 293.849 172.901 298.234 175.995 302.558C181.185 309.812 186.721 316.769 192.78 323.311C198.751 329.758 205.461 335.408 212.133 341.089C214.25 342.891 216.279 344.826 218.677 346.296C219.645 346.89 220.441 347.084 221.411 346.31C222.981 345.057 224.699 343.983 226.222 342.678C233.256 336.647 239.85 330.165 246.334 323.538C251.58 318.177 256.329 312.44 260.732 306.432C269.66 294.25 277.321 281.281 284.181 267.813C287.43 261.434 290.054 255.077 289.16 247.711C288.871 245.326 288.888 245.141 286.681 245.858C285.453 246.256 284.214 246.655 283.046 247.197C272.542 252.073 261.649 255.762 250.387 258.497C241.774 260.589 233.034 261.621 224.268 262.645C221.32 262.99 218.293 261.085 217.335 258.347C216.515 256.003 217.619 253.213 220.13 251.459C221.334 250.619 222.688 250.082 224.143 250.007C230.081 249.702 235.976 249.014 241.815 247.93C247.293 246.912 252.767 245.865 258.12 244.264C264.397 242.386 270.364 239.709 276.372 237.164C280.389 235.462 284.442 233.769 288.096 231.289C289.024 230.659 289.534 230.031 289.528 228.879C289.474 218.528 289.586 208.175 289.386 197.827C289.227 189.557 289.196 181.296 289.394 173.027C289.518 167.856 289.784 162.623 289.177 157.515C288.049 148.023 284.241 139.385 278.955 131.491C274.938 125.494 269.98 120.212 264.209 115.877C252.872 107.36 240.213 102.122 225.877 101.522C224.289 101.456 223.788 100.858 223.803 99.2842C223.915 87.7772 223.956 76.2695 224.003 64.7619C224.011 62.9043 224.633 60.5063 223.719 59.3275C222.618 57.9064 220.083 58.9158 218.176 58.8208C215.54 58.6895 215.2 59.0927 215.224 61.73C215.29 68.9924 215.368 76.2548 215.44 83.9468ZM126.401 240.264C128.614 243.883 131.881 245.404 135.858 244.731C136.741 244.581 137.146 244.222 136.993 243.305C136.597 240.932 137.133 238.573 137.117 236.201C137.042 225.704 137.225 215.206 136.92 204.708C136.723 197.887 136.809 191.058 136.786 184.233C136.782 183.151 136.688 182.163 135.353 181.984C133.097 181.682 130.976 181.772 129.027 183.301C125.817 185.819 124.913 189.234 124.905 193.035C124.876 207.06 124.893 221.084 124.859 235.109C124.854 236.893 125.16 238.536 126.401 240.264ZM312.7 239.907C313.698 237.925 313.908 235.825 313.843 233.627C313.746 230.322 313.816 227.012 313.815 223.705C313.809 212.487 313.839 201.27 313.781 190.053C313.758 185.403 309.667 181.518 305.37 181.795C303.87 181.892 303.118 182.531 303.117 184.051C303.117 186.064 303.097 188.077 303.069 190.09C302.895 202.383 303.193 214.678 302.781 226.971C302.607 232.143 302.772 237.325 302.698 242.501C302.675 244.157 303.246 244.708 304.943 244.786C308.586 244.953 310.916 243.213 312.7 239.907ZM227.786 36.5227C227.62 32.7549 225.658 30.0807 222.201 28.9083C218.664 27.7086 215.644 28.5789 213.164 31.5132C210.801 34.3084 210.548 38.046 212.515 41.1083C214.257 43.8192 218.324 45.1416 221.94 44.1721C225.604 43.1895 227.701 40.5801 227.786 36.5227Z" fill="white"/>
<path d="M97.3424 333.053C100.532 324.011 104.51 315.479 108.2 306.828C110.341 301.811 112.31 296.717 114.811 291.859C116.383 288.805 116.803 288.673 120.023 289.959C122.93 291.12 124.933 293.21 126.128 296.025C128.168 300.828 130.42 305.558 130.52 310.97C130.568 313.593 129.615 315.882 128.832 318.253C127.433 322.488 124.989 326.239 123.205 330.302C118.933 340.03 114.547 349.705 110.562 359.559C108.301 365.147 105.795 370.637 103.363 376.156C102.119 378.979 102.639 379.812 105.624 379.714C109.669 379.582 113.461 378.129 117.411 377.506C121.305 376.891 125.158 376.082 129.113 375.799C134.408 375.42 139.552 374.005 144.775 373.117C150.563 372.133 156.359 371.194 162.152 370.244C163.911 369.956 165.667 369.622 167.437 369.437C171.104 369.054 174.235 370.96 177.581 371.942C183.151 373.575 188.645 375.476 194.407 376.41C198.507 377.075 202.551 378.271 206.668 378.583C211.152 378.922 215.529 380.277 220.02 380.079C224.236 379.894 228.448 379.374 232.631 378.789C239.445 377.837 246.284 376.909 252.911 375.015C264.974 371.567 276.908 367.921 288.041 361.777C301.64 354.272 313.285 344.521 323.504 333.027C329.181 326.641 333.839 319.444 338.233 312.074C343.441 303.337 347.598 294.117 351.282 284.696C353.997 277.756 355.772 270.496 357.406 263.196C358.985 256.142 359.334 249.048 359.727 241.89C359.89 238.92 360.696 235.875 360.274 232.934C359.242 225.748 359.41 218.457 357.538 211.313C356.013 205.497 354.771 199.611 352.697 193.95C352.159 192.484 352.508 191.493 353.855 190.706C358.132 188.208 362.36 185.622 366.652 183.149C369.007 181.792 370.542 182.424 371.437 185.079C373.941 192.509 376.1 200.038 377.353 207.792C380.179 225.281 380.742 242.825 378.348 260.41C376.674 272.702 373.403 284.587 369.065 296.199C365.361 306.114 360.989 315.716 355.549 324.79C349.73 334.494 342.923 343.467 335.061 351.64C322.472 364.726 307.936 375.163 291.671 383.094C277.709 389.902 262.906 394.196 247.562 396.749C237.674 398.393 227.764 399.49 217.751 399.261C204.064 398.948 190.499 397.489 177.249 393.871C173.868 392.947 170.702 393.889 167.463 394.389C154.829 396.338 142.28 398.791 129.626 400.644C118.828 402.225 108.1 404.286 97.3252 406.039C91.0847 407.054 84.8262 407.983 78.5527 408.766C72.222 409.556 68.1123 404.505 69.8552 398.335C71.2317 393.463 73.7212 389.059 75.6299 384.41C80.3506 372.915 85.8866 361.768 90.333 350.152C92.515 344.451 95.3856 339.031 97.3424 333.053Z" fill="white"/>
<path d="M86.1493 277.74C88.6566 284.389 90.278 291.238 94.5705 296.914C95.2721 297.841 95.0135 298.778 94.6101 299.763C92.6273 304.604 90.6856 309.462 88.7236 314.311C87.9504 316.222 87.4794 318.433 84.8209 318.616C82.3866 318.785 79.799 317.223 78.7811 314.541C77.1959 310.364 75.0313 306.467 73.2201 302.401C68.9575 292.832 66.0328 282.833 63.795 272.676C60.0722 255.779 58.0694 238.655 60.0304 221.343C61.2503 210.574 63.2046 199.902 66.3395 189.489C66.945 187.478 68.1304 185.904 69.8775 184.757C71.0044 184.018 72.3347 183.491 73.5579 184.068C78.4928 186.394 83.3678 188.854 87.031 193.092C87.1615 193.243 87.1994 193.475 87.3101 193.739C85.0871 195.737 84.8087 198.652 83.9596 201.26C81.7581 208.022 80.9252 215.069 80.2579 222.107C79.7754 227.196 78.513 232.343 79.2753 237.397C80.2552 243.895 80.0091 250.458 81.1793 256.963C82.4366 263.953 84.5642 270.682 86.1493 277.74Z" fill="white"/>
<path d="M373.55 162.908C369.964 165.303 366.518 167.627 363.048 169.913C356.757 174.059 350.484 178.229 343.922 181.95C342.449 182.786 341.757 182.479 341.104 181.057C340.508 179.757 339.759 178.523 339.027 177.29C338.015 175.588 338.223 174.346 339.929 173.088C345.824 168.742 351.95 164.764 358.162 160.891C362.606 158.121 366.833 155.005 371.166 152.057C372.927 150.859 373.525 149.619 372.467 147.397C369.749 141.692 369.384 135.745 371.039 129.569C373.33 121.023 381.774 114.716 390.622 114.304C395.756 114.065 400.558 115.09 404.985 117.926C411.18 121.894 414.096 127.739 414.848 134.761C415.546 141.281 413.759 147.166 409.308 152.091C406.156 155.579 401.992 157.273 397.575 158.533C392.68 159.929 387.918 159.634 383.242 157.707C382.326 157.33 381.506 156.992 380.715 157.906C378.785 160.135 376.056 161.227 373.55 162.908ZM386.136 131.273C382.852 135.831 383.689 140.874 387.974 143.604C392.349 146.391 398.03 144.061 399.984 139.878C400.667 138.415 400.999 136.943 400.57 135.3C398.763 128.365 391.794 126.261 386.136 131.273Z" fill="white"/>
<path d="M73.923 167.812C68.539 164.481 63.2754 161.251 58.0229 158.003C57.0566 157.405 56.1484 157.55 55.1524 157.942C44.4886 162.136 31.6885 156.856 26.6137 146.693C20.2812 134.011 27.7639 116.645 43.0649 114.49C50.9062 113.385 57.744 115.682 63.3893 121.545C66.4219 124.695 68.0727 128.421 69.1047 132.463C70.4664 137.795 68.7513 142.715 66.2584 147.342C65.2702 149.176 65.4886 150.217 67.1046 151.48C69.4903 153.345 71.8875 155.199 74.594 156.522C78.369 158.369 81.6177 160.998 85.1409 163.213C88.658 165.425 92.1015 167.754 95.5576 170.062C97.1005 171.092 98.1997 172.68 99.9776 173.457C100.74 173.791 100.336 174.585 100.027 175.165C99.0798 176.942 98.0296 178.651 96.8293 180.278C95.8847 181.558 94.7847 181.637 93.6872 180.74C89.942 177.677 85.5148 175.663 81.6512 172.773C79.248 170.975 76.5907 169.517 73.923 167.812ZM39.7912 140.757C42.6858 145.197 47.4117 146.1 51.8679 143.065C55.4006 140.658 56.2367 136.486 53.9539 132.656C51.9617 129.314 46.6126 127.662 43.3728 129.39C39.3277 131.547 37.9547 135.62 39.7912 140.757Z" fill="white"/>
<path d="M183.397 349.679C184.724 351.208 186.005 352.584 186.544 354.443C186.722 355.053 187.079 355.749 186.45 356.242C185.829 356.727 185.212 356.305 184.692 355.91C181.758 353.68 179.155 351.109 176.98 348.134C176.418 347.364 175.581 346.376 176.623 345.465C177.675 344.545 178.902 345.062 179.765 345.828C181.042 346.96 182.129 348.306 183.397 349.679Z" fill="white"/>
<path d="M277.836 189.78C277.032 195.084 274.659 199.604 272.394 204.163C267.801 213.406 261.004 220.731 252.238 226.016C245.64 229.995 238.447 232.664 230.699 233.764C222.232 234.965 213.789 235.158 205.472 233.175C194.278 230.505 184.522 225.149 176.601 216.631C168.923 208.374 163.95 198.687 161.82 187.696C160.009 178.349 160.47 168.908 163.101 159.749C164.964 153.266 167.92 147.223 171.761 141.578C175.284 136.402 179.412 131.868 184.479 128.302C190.426 124.116 196.84 120.898 204.096 119.339C209.353 118.209 214.623 116.844 219.947 117.072C228.414 117.435 236.696 119.108 244.417 122.922C250.639 125.995 256.453 129.611 261.389 134.565C266.101 139.294 269.832 144.69 272.732 150.675C276.032 157.484 278.657 164.556 279.258 172.134C279.671 177.339 279.774 182.621 278.523 187.788C278.372 188.41 278.106 189.004 277.836 189.78ZM253.928 185.076C259.599 177.721 257.377 170.522 251.268 166.202C246.863 163.086 240.583 163.997 236.69 167.53C232.944 170.93 231.905 177.018 233.957 181.979C237.182 189.775 248.046 191.732 253.928 185.076ZM207.013 182.099C208.404 176.808 208.626 171.981 203.973 167.731C200.29 164.368 194.14 163.548 189.982 165.807C184.425 168.826 182.958 174.025 184.317 180.069C185.586 185.711 189.84 188.344 195.147 189.191C199.672 189.915 204.56 186.895 207.013 182.099Z" fill="white"/>
</svg>
